<?xml version="1.0" standalone="yes"?>
<svg xmlns="http://www.w3.org/2000/svg" width="350" height="140">
<path style="fill:#050303; stroke:none;" d="M0 0L0 140L350 140L350 0L0 0z"/>
<path style="fill:#ffffff; stroke:none;" d="M14 3L32 70L48 70L60 26L61 26L73 70L89 70L107 3L91 3L81 45L80 45L68 3L53 3L41 45L32.7099 15L28.4869 4.02779L14 3M209 3L209 70L224 70L224 3L209 3M155 57L141 54C134.539 62.1511 126.855 58.5698 122 51L155 51C155 42.7884 155.317 34.4408 148.815 28.3295C134.971 15.3168 110.966 24.9498 108.301 43C104.155 71.0809 143.761 82.6971 155 57M161 57C165.459 72.2286 196.193 79.1818 200.606 60C205.286 39.6554 185.211 47.7409 177.752 38.341C175.959 36.0824 179.054 34.4587 181.016 34.4568C184.196 34.4537 186.123 36.8112 188 39L201 36C195.519 17.3866 159.757 17.927 162.11 40C163.183 50.0721 173.415 50.3528 180.998 52.7083C182.773 53.2596 187.638 55.1524 185.94 57.8557C184.777 59.7068 181.845 59.7891 180.014 59.2184C171.832 56.6682 169.969 55.7922 161 57M279 57L265 54C258.539 62.151 250.855 58.5698 246 51L279 51C279 42.7884 279.317 34.4408 272.815 28.3295C258.971 15.3168 234.966 24.9498 232.301 43C228.155 71.081 267.761 82.6969 279 57M287 24C287 40.4517 281.775 73.3946 308 68.6705C311.598 68.0224 314.218 66.2439 317 64C316.967 75.8651 308.073 85.4976 299 73C289.899 74.2255 281.009 78.5507 291.301 87.2114C301.545 95.8315 322.72 94.0511 328.468 80.9992C335.405 65.2449 331 40.9315 331 24L316 24C316 31.3356 319.911 54.4811 309 55.534C297.731 56.6213 301 30.4837 301 24L287 24z"/>
<path style="fill:#050303; stroke:none;" d="M123 42L141 42C137.767 32.602 126.272 32.6067 123 42M247 42L265 42C261.767 32.602 250.272 32.6067 247 42z"/>
<path style="fill:#b50505; stroke:none;" d="M184 88L184 126L195 126L195 107L196 107C199.921 119.304 206.432 126 219 126L219 88L208 88L208 107C200.503 95.8863 198.223 88 184 88z"/>
<path style="fill:#810101; stroke:none;" d="M199 94L200 95L199 94z"/>
<path style="fill:#b50505; stroke:none;" d="M251 118L234 115L252 115C251.955 109.592 251.414 104.112 246.892 100.434C237.876 93.0997 224.265 100.22 223.2 111C221.576 127.444 247.621 134.391 251 118M312 119C309.709 118.531 307.341 117.552 304.999 117.434C300.132 117.188 296.758 120.737 301.153 124.567C304.269 127.283 309.093 127.327 313 126.891C324.112 125.653 324.864 111.2 314 109L314 108L322 106C318.076 92.1464 292.203 98.0219 299.029 110.956C301.725 116.065 308.05 115.562 312 119M164 127L174 127L183 99C168.76 99.0016 166.84 114.723 164 127M252 99C254.77 112.385 255.661 126 271 126L274 113L275 113C277.389 123.422 279.214 126 290 126L297 99C287.065 99.0011 284.813 102.042 284 112L283 112L280 99C268.866 99.0012 271.257 102.901 265 110L263 99L252 99z"/>
<path style="fill:#810101; stroke:none;" d="M228 100L229 101L228 100z"/>
<path style="fill:#b50505; stroke:none;" d="M163 123C162.984 118.43 162.957 115.697 159 113C162.957 110.303 162.984 107.57 163 103C145.721 106.332 145.472 119.874 163 123M325 103C325.016 107.57 325.043 110.303 329 113C325.043 115.697 325.016 118.43 325 123C342.425 119.894 342.455 106.15 325 103z"/>
<path style="fill:#ff0101; stroke:none;" d="M156 105L157 106L156 105z"/>
<path style="fill:#810101; stroke:none;" d="M180 106L181 107L180 106z"/>
<path style="fill:#050303; stroke:none;" d="M234 109L241 109C238.748 105.864 236.559 106.462 234 109M308 106L308 107L313 108L308 106z"/>
<path style="fill:#810101; stroke:none;" d="M195 107L196 108L195 107M282 108L283 109L282 108z"/>
<path style="fill:#ff0101; stroke:none;" d="M179 109L180 110L179 109z"/>
<path style="fill:#810101; stroke:none;" d="M255 111L256 112L255 111M159 112L160 113L159 112z"/>
<path style="fill:#ff0101; stroke:none;" d="M159 113L160 114L159 113M300 113L301 114L300 113M244 116L245 117L244 116z"/>
<path style="fill:#810101; stroke:none;" d="M292 116L293 117L292 116z"/>
<path style="fill:#ff0101; stroke:none;" d="M308 116L309 117L308 116M302 117L303 118L302 117z"/>
<path style="fill:#810101; stroke:none;" d="M337 117L338 118L337 117M152 118L153 119L152 118M239 118L240 119L239 118z"/>
<path style="fill:#ff0101; stroke:none;" d="M276 118L277 119L276 118M298 118L299 119L298 118M224 119L225 120L224 119M225 121L226 122L225 121M206 124L207 125L206 124z"/>
</svg>
