<?xml version="1.0" standalone="yes"?>
<svg xmlns="http://www.w3.org/2000/svg" width="350" height="140">
<path style="fill:#010101; stroke:none;" d="M0 0L0 140L350 140L350 0L0 0z"/>
<path style="fill:#ffffff; stroke:none;" d="M9 18C10.1668 32.2859 16.0589 47.1135 19.6296 61C20.8417 65.7136 21.632 74.7566 24.9375 78.3966C27.9247 81.686 46.9169 81.5196 50.0062 78.3966C53.4341 74.9313 54.1175 68.3686 56 64C61.706 77.242 61.8385 80.001 77 80C79.9072 79.9998 84.7126 80.8689 86.8611 78.3966C90.4617 74.2533 91.0557 65.2071 92.3742 60C95.8799 46.1553 101.092 32.1662 103 18L77 18L72 51L71 51L66 31L46.7276 32.0278L41 50L40 50L35 18L9 18M205 18L205 80L229 80L229 18L205 18M151 63L120 63L120 62L152 62C152 52.3539 151.572 43.8332 142.996 37.6381C128.574 27.2201 99.7661 32.5963 98.0934 53C95.6201 83.1686 145.753 91.9688 151 63M180 66L153 64C156.579 81.0667 178.712 84.4987 192.999 77.6721C200.648 74.0174 205.006 64.5384 199.347 57.1049C192.972 48.7301 181.689 53.2681 175 47L200 49C198.465 31.9556 173.666 28.1847 161.005 36.0054C154.45 40.0539 151.46 49.3912 156.514 55.8951C162.572 63.6913 173.548 59.9534 180 66M286 63L255 63L255 62L287 62C287 52.3539 286.572 43.8332 277.996 37.6381C263.574 27.2201 234.766 32.5963 233.093 53C230.62 83.1686 280.753 91.9688 286 63M286 33L301.517 78L297 96C302.711 96 314.691 98.2856 319.501 94.9722C323.399 92.2872 324.594 84.2052 326.192 80C331.598 65.7716 341.218 48.2447 342 33L319.728 34.0278L315 52C312.246 47.0335 312.825 38.7467 309.062 34.6034C305.355 30.5209 291.205 33 286 33z"/>
<path style="fill:#010101; stroke:none;" d="M119 53L132 53C127.974 48.1664 123.026 48.1664 119 53M254 53L267 53C262.974 48.1664 258.026 48.1664 254 53z"/>
<path style="fill:#b50505; stroke:none;" d="M187 96L187 131L201 131L200 120L201 120C205.096 129.737 210.218 131 220 131L220 96L206 96L206 106C200.234 97.5252 197.075 96 187 96z"/>
<path style="fill:#ed0101; stroke:none;" d="M200 98L201 99L200 98z"/>
<path style="fill:#b50505; stroke:none;" d="M166 131L176 131L185 103C170.76 103.002 168.84 118.723 166 131M253 121L235 121L235 120L254 120L254 115L255 115L259 131C266.509 131 272.903 132.62 275 124L276 124C277.41 132.775 284.804 131 292 131L297 111L298 111C299.324 119.314 305.39 120.842 313 121L313 122L298 122C300.024 131.997 316.686 134.905 323.566 127.606C329.291 121.533 323.68 114.746 317 114L317 113L325 113C322.75 101.886 302.356 99.6662 299 111L298 111L299 104L285 104L284 115L283 115C281.242 103.104 270.8 101.946 268 114L267 114L266 104L252 104L253 111C243.216 100.068 216.234 102.571 222.854 121.996C227.489 135.597 248.75 133.491 253 121z"/>
<path style="fill:#ed0101; stroke:none;" d="M302 105L303 106L302 105z"/>
<path style="fill:#010101; stroke:none;" d="M206 106L207 107L206 106z"/>
<path style="fill:#ed0101; stroke:none;" d="M227 106L228 107L227 106z"/>
<path style="fill:#b50505; stroke:none;" d="M165 127C164.984 122.43 164.957 119.697 161 117C164.957 114.303 164.984 111.57 165 107C147.721 110.332 147.472 123.874 165 127M327 107C327.016 111.57 327.043 114.303 331 117C327.043 119.697 327.016 122.43 327 127C344.425 123.894 344.455 110.15 327 107z"/>
<path style="fill:#ed0101; stroke:none;" d="M158 109L159 110L158 109M224 109L225 110L224 109z"/>
<path style="fill:#810101; stroke:none;" d="M182 110L183 111L182 110z"/>
<path style="fill:#010101; stroke:none;" d="M253 111L253 114L254 114L253 111M311 112L312 113L311 112z"/>
<path style="fill:#ed0101; stroke:none;" d="M181 113L182 114L181 113z"/>
<path style="fill:#010101; stroke:none;" d="M235 114L235 115L241 115L241 113L235 114z"/>
<path style="fill:#ed0101; stroke:none;" d="M253 114L254 115L253 114M298 114L299 115L298 114z"/>
<path style="fill:#810101; stroke:none;" d="M161 116L162 117L161 116z"/>
<path style="fill:#ed0101; stroke:none;" d="M161 117L162 118L161 117z"/>
<path style="fill:#810101; stroke:none;" d="M339 121L340 122L339 121M154 122L155 123L154 122z"/>
<path style="fill:#ed0101; stroke:none;" d="M200 123L201 124L200 123M203 124L204 125L203 124M293 124L294 125L293 124M224 125L225 126L224 125M227 128L228 129L227 128z"/>
<path style="fill:#810101; stroke:none;" d="M258 128L259 129L258 128z"/>
</svg>
